<mxfile host="app.diagrams.net" modified="2021-08-22T04:43:00.229Z" agent="5.0 (Windows NT 10.0; Win64; x64) AppleWebKit/537.36 (KHTML, like Gecko) Chrome/92.0.4515.159 Safari/537.36 Edg/92.0.902.78" etag="YvTeQs0b_kOsOvLD7bQy" version="14.7.6" type="github">
  <diagram id="uv0PM0XSa5BGcsPK1Acd" name="第 1 页">
    <mxGraphModel dx="2067" dy="643" grid="0" gridSize="10" guides="1" tooltips="1" connect="1" arrows="1" fold="1" page="1" pageScale="1" pageWidth="827" pageHeight="1169" math="0" shadow="0">
      <root>
        <mxCell id="0" />
        <mxCell id="1" parent="0" />
        <mxCell id="iHD18jjsQQ3x6bLIzqM4-1" value="" style="endArrow=classic;html=1;" edge="1" parent="1">
          <mxGeometry width="50" height="50" relative="1" as="geometry">
            <mxPoint x="99" y="430" as="sourcePoint" />
            <mxPoint x="769" y="430" as="targetPoint" />
          </mxGeometry>
        </mxCell>
        <mxCell id="iHD18jjsQQ3x6bLIzqM4-2" value="" style="endArrow=classic;html=1;" edge="1" parent="1">
          <mxGeometry width="50" height="50" relative="1" as="geometry">
            <mxPoint x="99" y="430" as="sourcePoint" />
            <mxPoint x="99" y="130" as="targetPoint" />
          </mxGeometry>
        </mxCell>
        <mxCell id="iHD18jjsQQ3x6bLIzqM4-5" value="30&lt;br style=&quot;font-size: 17px;&quot;&gt;" style="text;html=1;align=center;verticalAlign=middle;resizable=0;points=[];autosize=1;strokeColor=none;strokeWidth=1;fontSize=17;" vertex="1" parent="1">
          <mxGeometry x="129" y="430" width="30" height="30" as="geometry" />
        </mxCell>
        <mxCell id="iHD18jjsQQ3x6bLIzqM4-6" value="&lt;font&gt;40&lt;/font&gt;" style="text;html=1;align=center;verticalAlign=middle;resizable=0;points=[];autosize=1;strokeColor=none;strokeWidth=1;fontSize=17;" vertex="1" parent="1">
          <mxGeometry x="169" y="430" width="30" height="30" as="geometry" />
        </mxCell>
        <mxCell id="iHD18jjsQQ3x6bLIzqM4-7" value="&lt;font&gt;50&lt;/font&gt;" style="text;html=1;align=center;verticalAlign=middle;resizable=0;points=[];autosize=1;strokeColor=none;strokeWidth=1;fontSize=17;" vertex="1" parent="1">
          <mxGeometry x="209" y="430" width="30" height="30" as="geometry" />
        </mxCell>
        <mxCell id="iHD18jjsQQ3x6bLIzqM4-8" value="&lt;font&gt;80&lt;/font&gt;" style="text;html=1;align=center;verticalAlign=middle;resizable=0;points=[];autosize=1;strokeColor=none;strokeWidth=1;fontSize=17;" vertex="1" parent="1">
          <mxGeometry x="283" y="430" width="30" height="30" as="geometry" />
        </mxCell>
        <mxCell id="iHD18jjsQQ3x6bLIzqM4-9" value="&lt;font&gt;120&lt;/font&gt;" style="text;html=1;align=center;verticalAlign=middle;resizable=0;points=[];autosize=1;strokeColor=none;strokeWidth=1;fontSize=17;" vertex="1" parent="1">
          <mxGeometry x="354" y="430" width="40" height="30" as="geometry" />
        </mxCell>
        <mxCell id="iHD18jjsQQ3x6bLIzqM4-10" value="&lt;font&gt;150&lt;/font&gt;&lt;span style=&quot;color: rgba(0 , 0 , 0 , 0) ; font-family: monospace ; font-size: 0px&quot;&gt;%3CmxGraphModel%3E%3Croot%3E%3CmxCell%20id%3D%220%22%2F%3E%3CmxCell%20id%3D%221%22%20parent%3D%220%22%2F%3E%3CmxCell%20id%3D%222%22%20value%3D%22%26lt%3Bfont%26gt%3B80%26lt%3B%2Ffont%26gt%3B%22%20style%3D%22text%3Bhtml%3D1%3Balign%3Dcenter%3BverticalAlign%3Dmiddle%3Bresizable%3D0%3Bpoints%3D%5B%5D%3Bautosize%3D1%3BstrokeColor%3Dnone%3BstrokeWidth%3D1%3BfontSize%3D17%3B%22%20vertex%3D%221%22%20parent%3D%221%22%3E%3CmxGeometry%20x%3D%22384%22%20y%3D%22320%22%20width%3D%2230%22%20height%3D%2230%22%20as%3D%22geometry%22%2F%3E%3C%2FmxCell%3E%3C%2Froot%3E%3C%2FmxGraphModel%3E&lt;/span&gt;" style="text;html=1;align=center;verticalAlign=middle;resizable=0;points=[];autosize=1;strokeColor=none;strokeWidth=1;fontSize=17;" vertex="1" parent="1">
          <mxGeometry x="444" y="430" width="40" height="30" as="geometry" />
        </mxCell>
        <mxCell id="iHD18jjsQQ3x6bLIzqM4-11" value="&lt;font&gt;200&lt;/font&gt;" style="text;html=1;align=center;verticalAlign=middle;resizable=0;points=[];autosize=1;strokeColor=none;strokeWidth=1;fontSize=17;" vertex="1" parent="1">
          <mxGeometry x="524" y="430" width="40" height="30" as="geometry" />
        </mxCell>
        <mxCell id="iHD18jjsQQ3x6bLIzqM4-14" value="&lt;font&gt;180&lt;/font&gt;" style="text;html=1;align=center;verticalAlign=middle;resizable=0;points=[];autosize=1;strokeColor=none;strokeWidth=1;fontSize=17;" vertex="1" parent="1">
          <mxGeometry x="59" y="380" width="40" height="30" as="geometry" />
        </mxCell>
        <mxCell id="iHD18jjsQQ3x6bLIzqM4-15" value="&lt;font&gt;210&lt;/font&gt;" style="text;html=1;align=center;verticalAlign=middle;resizable=0;points=[];autosize=1;strokeColor=none;strokeWidth=1;fontSize=17;" vertex="1" parent="1">
          <mxGeometry x="64" y="300" width="40" height="30" as="geometry" />
        </mxCell>
        <mxCell id="iHD18jjsQQ3x6bLIzqM4-16" value="&lt;font&gt;220&lt;/font&gt;&lt;span style=&quot;color: rgba(0 , 0 , 0 , 0) ; font-family: monospace ; font-size: 0px&quot;&gt;%3CmxGraphModel%3E%3Croot%3E%3CmxCell%20id%3D%220%22%2F%3E%3CmxCell%20id%3D%221%22%20parent%3D%220%22%2F%3E%3CmxCell%20id%3D%222%22%20value%3D%2230%26lt%3Bbr%20style%3D%26quot%3Bfont-size%3A%2017px%3B%26quot%3B%26gt%3B%22%20style%3D%22text%3Bhtml%3D1%3Balign%3Dcenter%3BverticalAlign%3Dmiddle%3Bresizable%3D0%3Bpoints%3D%5B%5D%3Bautosize%3D1%3BstrokeColor%3Dnone%3BstrokeWidth%3D1%3BfontSize%3D17%3B%22%20vertex%3D%221%22%20parent%3D%221%22%3E%3CmxGeometry%20x%3D%22230%22%20y%3D%22320%22%20width%3D%2230%22%20height%3D%2230%22%20as%3D%22geometry%22%2F%3E%3C%2FmxCell%3E%3C%2Froot%3E%3C%2FmxGraphModel%3E&lt;/span&gt;" style="text;html=1;align=center;verticalAlign=middle;resizable=0;points=[];autosize=1;strokeColor=none;strokeWidth=1;fontSize=17;" vertex="1" parent="1">
          <mxGeometry x="64" y="260" width="40" height="30" as="geometry" />
        </mxCell>
        <mxCell id="iHD18jjsQQ3x6bLIzqM4-17" value="&lt;font&gt;230&lt;/font&gt;" style="text;html=1;align=center;verticalAlign=middle;resizable=0;points=[];autosize=1;strokeColor=none;strokeWidth=1;fontSize=17;" vertex="1" parent="1">
          <mxGeometry x="64" y="220" width="40" height="30" as="geometry" />
        </mxCell>
        <mxCell id="iHD18jjsQQ3x6bLIzqM4-18" value="&lt;font&gt;250&lt;/font&gt;" style="text;html=1;align=center;verticalAlign=middle;resizable=0;points=[];autosize=1;strokeColor=none;strokeWidth=1;fontSize=17;" vertex="1" parent="1">
          <mxGeometry x="64" y="140" width="40" height="30" as="geometry" />
        </mxCell>
        <mxCell id="iHD18jjsQQ3x6bLIzqM4-23" value="" style="shape=partialRectangle;whiteSpace=wrap;html=1;bottom=0;right=0;fontSize=17;strokeWidth=3;fillColor=none;strokeColor=#333333;" vertex="1" parent="1">
          <mxGeometry x="219" y="310" width="160" height="120" as="geometry" />
        </mxCell>
        <mxCell id="iHD18jjsQQ3x6bLIzqM4-24" value="" style="shape=partialRectangle;whiteSpace=wrap;html=1;bottom=0;right=0;fontSize=17;strokeWidth=3;fillColor=none;strokeColor=#666666;" vertex="1" parent="1">
          <mxGeometry x="379" y="150" width="260" height="160" as="geometry" />
        </mxCell>
        <mxCell id="iHD18jjsQQ3x6bLIzqM4-25" value="&lt;font&gt;300&lt;/font&gt;" style="text;html=1;align=center;verticalAlign=middle;resizable=0;points=[];autosize=1;strokeColor=none;strokeWidth=1;fontSize=17;" vertex="1" parent="1">
          <mxGeometry x="619" y="430" width="40" height="30" as="geometry" />
        </mxCell>
        <mxCell id="iHD18jjsQQ3x6bLIzqM4-26" value="" style="shape=partialRectangle;whiteSpace=wrap;html=1;bottom=0;right=0;fontSize=17;strokeWidth=3;fillColor=none;strokeColor=#6666FF;fontColor=#FF3333;" vertex="1" parent="1">
          <mxGeometry x="139" y="270" width="160" height="160" as="geometry" />
        </mxCell>
        <mxCell id="iHD18jjsQQ3x6bLIzqM4-27" value="" style="shape=partialRectangle;whiteSpace=wrap;html=1;bottom=0;right=0;fontSize=17;strokeWidth=3;fillColor=none;strokeColor=#6666FF;" vertex="1" parent="1">
          <mxGeometry x="299" y="230" width="240" height="40" as="geometry" />
        </mxCell>
        <mxCell id="iHD18jjsQQ3x6bLIzqM4-28" value="" style="shape=partialRectangle;whiteSpace=wrap;html=1;bottom=0;right=0;fontSize=17;strokeWidth=3;fillColor=none;rotation=90;strokeColor=#6666FF;" vertex="1" parent="1">
          <mxGeometry x="380.75" y="269.75" width="199.75" height="121.25" as="geometry" />
        </mxCell>
        <mxCell id="iHD18jjsQQ3x6bLIzqM4-29" value="" style="shape=partialRectangle;whiteSpace=wrap;html=1;bottom=0;right=0;fontSize=17;strokeWidth=3;fillColor=none;strokeColor=#FF3333;" vertex="1" parent="1">
          <mxGeometry x="179" y="390" width="280" height="40" as="geometry" />
        </mxCell>
        <mxCell id="iHD18jjsQQ3x6bLIzqM4-30" value="" style="shape=partialRectangle;whiteSpace=wrap;html=1;bottom=0;right=0;fontSize=17;strokeWidth=3;fillColor=none;strokeColor=#FF3333;" vertex="1" parent="1">
          <mxGeometry x="459" y="190" width="220" height="200" as="geometry" />
        </mxCell>
        <mxCell id="iHD18jjsQQ3x6bLIzqM4-31" value="&lt;font&gt;240&lt;/font&gt;" style="text;html=1;align=center;verticalAlign=middle;resizable=0;points=[];autosize=1;strokeColor=none;strokeWidth=1;fontSize=17;" vertex="1" parent="1">
          <mxGeometry x="64" y="180" width="40" height="30" as="geometry" />
        </mxCell>
        <mxCell id="iHD18jjsQQ3x6bLIzqM4-32" value="&lt;font&gt;350&lt;/font&gt;" style="text;html=1;align=center;verticalAlign=middle;resizable=0;points=[];autosize=1;strokeColor=none;strokeWidth=1;fontSize=17;" vertex="1" parent="1">
          <mxGeometry x="659" y="430" width="40" height="30" as="geometry" />
        </mxCell>
        <mxCell id="iHD18jjsQQ3x6bLIzqM4-35" value="" style="shape=partialRectangle;whiteSpace=wrap;html=1;bottom=0;right=0;fontSize=17;strokeWidth=3;fillColor=none;rotation=90;strokeColor=#666666;" vertex="1" parent="1">
          <mxGeometry x="438.63" y="230.38" width="279.75" height="120" as="geometry" />
        </mxCell>
        <mxCell id="iHD18jjsQQ3x6bLIzqM4-36" value="" style="shape=partialRectangle;whiteSpace=wrap;html=1;bottom=0;right=0;fontSize=17;strokeWidth=3;fillColor=none;rotation=90;strokeColor=#FF3333;" vertex="1" parent="1">
          <mxGeometry x="497.7" y="249.69" width="240.37" height="120.01" as="geometry" />
        </mxCell>
        <mxCell id="iHD18jjsQQ3x6bLIzqM4-41" value="210" style="text;html=1;align=center;verticalAlign=middle;resizable=0;points=[];autosize=1;strokeColor=none;fontSize=17;" vertex="1" parent="1">
          <mxGeometry x="290" y="285" width="40" height="30" as="geometry" />
        </mxCell>
        <mxCell id="iHD18jjsQQ3x6bLIzqM4-44" value="250" style="text;html=1;align=center;verticalAlign=middle;resizable=0;points=[];autosize=1;strokeColor=none;fontSize=17;" vertex="1" parent="1">
          <mxGeometry x="510" y="125" width="40" height="30" as="geometry" />
        </mxCell>
        <mxCell id="iHD18jjsQQ3x6bLIzqM4-45" value="230" style="rounded=0;whiteSpace=wrap;html=1;fontSize=17;strokeWidth=3;fillColor=none;strokeColor=none;fontColor=#3333FF;" vertex="1" parent="1">
          <mxGeometry x="388.5" y="200" width="61" height="30" as="geometry" />
        </mxCell>
        <mxCell id="iHD18jjsQQ3x6bLIzqM4-47" value="&lt;font color=&quot;#ff3333&quot;&gt;240&lt;/font&gt;" style="rounded=0;whiteSpace=wrap;html=1;fontSize=17;strokeWidth=3;fillColor=none;strokeColor=none;" vertex="1" parent="1">
          <mxGeometry x="538.5" y="160" width="61" height="30" as="geometry" />
        </mxCell>
        <mxCell id="iHD18jjsQQ3x6bLIzqM4-48" value="&lt;font color=&quot;#ff3333&quot;&gt;180&lt;/font&gt;" style="rounded=0;whiteSpace=wrap;html=1;fontSize=17;strokeWidth=3;fillColor=none;strokeColor=none;" vertex="1" parent="1">
          <mxGeometry x="288.5" y="361" width="61" height="30" as="geometry" />
        </mxCell>
        <mxCell id="iHD18jjsQQ3x6bLIzqM4-49" value="220" style="rounded=0;whiteSpace=wrap;html=1;fontSize=17;strokeWidth=3;fillColor=none;strokeColor=none;fontColor=#3333FF;" vertex="1" parent="1">
          <mxGeometry x="179" y="240" width="61" height="30" as="geometry" />
        </mxCell>
        <mxCell id="iHD18jjsQQ3x6bLIzqM4-51" value="&lt;p class=&quot;MsoNormal&quot; style=&quot;text-indent: 24pt; font-size: 19px;&quot;&gt;&lt;span style=&quot;font-size: 19px;&quot;&gt;机组出力&lt;/span&gt;&lt;span lang=&quot;EN-US&quot; style=&quot;font-size: 19px;&quot;&gt;&lt;/span&gt;&lt;/p&gt;" style="rounded=0;whiteSpace=wrap;html=1;fontSize=19;strokeWidth=3;fillColor=none;strokeColor=none;fontColor=#1A1A1A;" vertex="1" parent="1">
          <mxGeometry x="699" y="420" width="120" height="60" as="geometry" />
        </mxCell>
        <mxCell id="iHD18jjsQQ3x6bLIzqM4-52" value="&lt;span style=&quot;color: rgba(0 , 0 , 0 , 0) ; font-family: monospace ; font-size: 0px&quot;&gt;%3CmxGraphModel%3E%3Croot%3E%3CmxCell%20id%3D%220%22%2F%3E%3CmxCell%20id%3D%221%22%20parent%3D%220%22%2F%3E%3CmxCell%20id%3D%222%22%20value%3D%22210%22%20style%3D%22text%3Bhtml%3D1%3Balign%3Dcenter%3BverticalAlign%3Dmiddle%3Bresizable%3D0%3Bpoints%3D%5B%5D%3Bautosize%3D1%3BstrokeColor%3Dnone%3BfontSize%3D17%3B%22%20vertex%3D%221%22%20parent%3D%221%22%3E%3CmxGeometry%20x%3D%22290%22%20y%3D%22285%22%20width%3D%2240%22%20height%3D%2230%22%20as%3D%22geometry%22%2F%3E%3C%2FmxCell%3E%3C%2Froot%3E%3C%2FmxGraphModel%3E&lt;/span&gt;" style="text;html=1;align=center;verticalAlign=middle;resizable=0;points=[];autosize=1;strokeColor=none;fontSize=17;" vertex="1" parent="1">
          <mxGeometry x="568.51" y="500" width="20" height="30" as="geometry" />
        </mxCell>
        <mxCell id="iHD18jjsQQ3x6bLIzqM4-54" value="&lt;div style=&quot;text-indent: 32px; font-size: 22px;&quot;&gt;&lt;span style=&quot;font-size: 22px;&quot;&gt;报价&lt;/span&gt;&lt;/div&gt;" style="rounded=0;whiteSpace=wrap;html=1;fontSize=22;strokeWidth=3;fillColor=none;strokeColor=none;fontColor=#1A1A1A;" vertex="1" parent="1">
          <mxGeometry y="90" width="120" height="60" as="geometry" />
        </mxCell>
        <mxCell id="iHD18jjsQQ3x6bLIzqM4-56" value="" style="line;strokeWidth=2;html=1;fontSize=20;fontColor=#1A1A1A;fillColor=none;" vertex="1" parent="1">
          <mxGeometry x="712" y="107" width="47" height="10" as="geometry" />
        </mxCell>
        <mxCell id="iHD18jjsQQ3x6bLIzqM4-62" value="" style="line;strokeWidth=2;html=1;fontSize=20;fontColor=#1A1A1A;fillColor=none;strokeColor=#3333FF;" vertex="1" parent="1">
          <mxGeometry x="712" y="130" width="47" height="10" as="geometry" />
        </mxCell>
        <mxCell id="iHD18jjsQQ3x6bLIzqM4-63" value="" style="line;strokeWidth=2;html=1;fontSize=20;fontColor=#1A1A1A;fillColor=none;strokeColor=#FF3333;" vertex="1" parent="1">
          <mxGeometry x="712" y="153" width="47" height="10" as="geometry" />
        </mxCell>
        <mxCell id="iHD18jjsQQ3x6bLIzqM4-74" value="&lt;p class=&quot;MsoNormal&quot; style=&quot;text-indent: 24pt ; font-size: 19px&quot;&gt;&lt;span style=&quot;font-size: 19px&quot;&gt;雅&lt;/span&gt;&lt;span lang=&quot;EN-US&quot; style=&quot;font-size: 19px&quot;&gt;&lt;/span&gt;&lt;/p&gt;" style="rounded=0;whiteSpace=wrap;html=1;fontSize=19;strokeWidth=3;fillColor=none;strokeColor=none;fontColor=#1A1A1A;" vertex="1" parent="1">
          <mxGeometry x="385" y="483" width="120" height="60" as="geometry" />
        </mxCell>
      </root>
    </mxGraphModel>
  </diagram>
</mxfile>
